{"title":"Plemya - The Tribe 2014 [1080p] BluRay Rip - LucasCulas","uid":12320072,"size":3938088271,"categoryP":"video","categoryS":"hd___movies","magnet":"?xt=urn:btih:ac44eef8aabda995b5847fcc29e851add3db8ec9&amp;dn=Plemya+-+The+Tribe+2014+%5B1080p%5D+BluRay+Rip+-+LucasCulas&amp;tr=udp%3A%2F%2Ftracker.openbittorrent.com%3A80&amp;tr=udp%3A%2F%2Fopen.demonii.com%3A1337&amp;tr=udp%3A%2F%2Ftracker.coppersurfer.tk%3A6969&amp;tr=udp%3A%2F%2Fexodus.desync.com%3A6969","seeders":0,"leechers":1,"uploader":"LucasCulas","files":8,"time":1441052443,"description":"THIS FILM IS IN SIGN LANGUAGE. THERE ARE NO TRANSLATION, NO SUBTITLES, NO VOICE-OVER.\n\nA deaf teenager enters a specialized boarding school where, to survive, he becomes part of a wild organization - the tribe. His love for one of the concubines will unwillingly lead him to break all the unwritten rules within the Tribe's hierarchy.\n\nFormat: Matroska\nFile size: 3.54 GiB\nDuration: 2h 6mn\nOverall bit rate: 4 012 Kbps\n\nVideo\nFormat: AVC\nBit rate: 3 800 Kbps\nWidth: 1 920 pixels\nHeight: 800 pixels\nDisplay aspect ratio: 2.40:1\nFrame rate: 25.000 fps\nBit depth: 8 bits\nStream size: 3.28 GiB (92%)\n\n\nAudio\nFormat: AC-3\nBit rate mode: Constant\nBit rate: 224 Kbps\nChannel(s): 6 channels\nSampling rate: 48.0 KHz\nStream size: 203 MiB (6%)","torrent":{"xt":"urn:btih:ac44eef8aabda995b5847fcc29e851add3db8ec9","amp;dn":"Plemya+-+The+Tribe+2014+%5B1080p%5D+BluRay+Rip+-+LucasCulas","amp;tr":["udp%3A%2F%2Ftracker.openbittorrent.com%3A80","udp%3A%2F%2Fopen.demonii.com%3A1337","udp%3A%2F%2Ftracker.coppersurfer.tk%3A6969","udp%3A%2F%2Fexodus.desync.com%3A6969"],"infoHash":"ac44eef8aabda995b5847fcc29e851add3db8ec9","infoHashBuffer":{"type":"Buffer","data":[172,68,238,248,170,189,169,149,181,132,127,204,41,232,81,173,211,219,142,201]},"announce":[],"urlList":[]}}